<svg
	version="1.1"
	id="Layer_1"
	xmlns="http://www.w3.org/2000/svg"
	xmlns:xlink="http://www.w3.org/1999/xlink"
	x="0px"
	y="0px"
	width="100%"
	viewBox="0 0 1024 1024"
	enable-background="new 0 0 1024 1024"
	xml:space="preserve"
	
>
<path fill="#000000" opacity="1.000000" stroke="none" 
	d="
M570.908386,237.805862 
	C612.527466,248.098938 642.602844,272.143860 660.748108,310.586578 
	C668.507568,327.026031 672.343689,344.521698 672.339478,362.795319 
	C672.319458,448.616669 672.333313,534.438049 672.323059,620.259399 
	C672.322021,628.750610 668.413147,633.040894 659.888428,632.992554 
	C628.070068,632.812317 596.185974,634.542542 564.447083,632.046692 
	C515.721252,628.215088 472.287567,610.513489 434.994476,578.723511 
	C392.704132,542.673767 366.738312,497.069366 356.993927,442.357178 
	C354.482544,428.256378 353.340942,413.974792 353.705231,399.619843 
	C354.119049,383.312042 352.837311,366.983490 354.621185,350.688080 
	C358.220642,317.808197 372.282898,290.265869 396.680450,268.048187 
	C416.076111,250.385513 439.030975,240.021729 464.859009,236.028107 
	C470.592194,235.141632 476.458130,234.814743 482.266998,234.771591 
	C502.263092,234.623001 522.261047,234.736282 542.258179,234.704514 
	C551.785095,234.689377 561.175049,235.851059 570.908386,237.805862 
M599.385132,284.014465 
	C575.202637,287.911255 555.617371,299.205811 541.628662,319.666931 
	C528.541016,338.810059 524.375427,360.480438 523.419189,383.076050 
	C523.112488,390.322571 519.463135,394.476135 513.093262,394.505829 
	C506.792419,394.535187 502.775116,390.197906 502.707458,383.076782 
	C502.618713,373.731842 501.530396,364.508484 499.640381,355.369598 
	C491.468689,315.857391 465.225220,290.523285 425.440643,283.567535 
	C416.924225,282.078552 409.342926,282.588989 403.974091,290.639587 
	C402.139832,293.390045 399.549316,295.624237 397.567657,298.290039 
	C378.408081,324.064362 370.634521,352.692627 377.294769,384.405182 
	C383.013855,411.636383 397.122742,434.432281 417.052856,453.528320 
	C449.400635,484.522339 488.173920,497.042816 532.463501,491.379059 
	C562.071594,487.592804 588.049744,475.054291 609.445740,454.243652 
	C637.266174,427.184357 653.958496,395.050690 650.774963,354.963745 
	C648.551147,326.962860 636.526001,303.649109 616.066223,284.564423 
	C614.818970,283.401001 613.557007,282.462494 611.661621,282.683685 
	C607.862793,283.127014 604.048218,283.434570 599.385132,284.014465 
M579.621948,560.702271 
	C573.864990,542.190491 572.590454,522.985596 571.512451,503.735046 
	C492.689178,527.745728 429.067719,506.533020 378.466217,441.639374 
	C390.256256,498.591858 419.192505,543.326050 466.541046,575.865845 
	C509.105591,605.117859 556.614014,614.986633 608.450378,611.074707 
	C594.495117,596.421387 585.416504,579.931641 579.621948,560.702271 
M617.343933,589.160828 
	C624.356628,597.789429 632.758362,604.799133 642.394897,610.288818 
	C648.645935,613.849854 651.620361,612.062134 651.621216,604.969604 
	C651.627747,550.870361 651.625916,496.771149 651.626648,442.671906 
	C651.626648,440.656250 651.626587,438.640594 651.626587,436.624969 
	C636.871826,458.907043 618.791931,476.968109 596.332947,490.569794 
	C593.822571,492.090149 593.220764,494.075195 593.219543,496.790100 
	C593.213928,509.262085 593.331787,521.700562 595.231018,534.088013 
	C598.276794,553.953308 604.408997,572.524170 617.343933,589.160828 
M492.711975,294.798920 
	C501.339233,303.617249 507.513184,314.131348 513.255920,326.007599 
	C527.600159,293.744629 551.555603,274.122620 585.025208,264.859131 
	C574.993408,260.092896 560.918091,256.395966 551.214783,256.305969 
	C527.891785,256.089600 504.566742,256.089111 481.242462,256.021271 
	C469.288727,255.986496 457.769745,258.388916 446.564270,262.407196 
	C444.985687,262.973297 443.078857,263.234528 441.937775,265.312134 
	C461.636597,270.378510 478.428162,279.763428 492.711975,294.798920 
z"/>
<path fill="#000000" opacity="1.000000" stroke="none" 
	d="
M593.776367,333.850250 
	C610.904785,335.656036 618.904907,354.986176 608.051880,367.721039 
	C602.176880,374.614746 592.891663,376.690094 584.430115,373.216431 
	C576.737732,370.058533 571.305298,361.400391 571.930176,353.294220 
	C572.659546,343.832092 578.683655,336.711639 587.928345,334.525024 
	C589.692383,334.107819 591.540161,334.044373 593.776367,333.850250 
z"/>
<path fill="#000000" opacity="1.000000" stroke="none" 
	d="
M413.968170,359.654724 
	C412.315887,346.124481 417.804749,337.286224 429.228760,334.527710 
	C439.369537,332.079010 449.823029,337.862366 453.082306,347.724579 
	C456.524719,358.141022 451.545929,369.186859 441.534668,373.343994 
	C431.851776,377.364807 420.683685,373.397675 415.832367,364.171539 
	C415.137848,362.850739 414.655121,361.418610 413.968170,359.654724 
z"/>
</svg>